<svg width="38" height="38" viewBox="0 0 38 38" fill="none" xmlns="http://www.w3.org/2000/svg">
<path d="M31.6663 20.5833C31.6663 28.5 26.1247 32.4583 19.538 34.7542C19.1931 34.871 18.8184 34.8655 18.4772 34.7383C11.8747 32.4583 6.33301 28.5 6.33301 20.5833V9.5C6.33301 9.08007 6.49982 8.67735 6.79676 8.38041C7.09369 8.08348 7.49642 7.91667 7.91634 7.91667C11.083 7.91667 15.0413 6.01667 17.7963 3.61C18.1318 3.32341 18.5585 3.16595 18.9997 3.16595C19.4409 3.16595 19.8676 3.32341 20.203 3.61C22.9738 6.0325 26.9163 7.91667 30.083 7.91667C30.5029 7.91667 30.9057 8.08348 31.2026 8.38041C31.4995 8.67735 31.6663 9.08007 31.6663 9.5V20.5833Z" stroke="#DCE2FF" stroke-width="2" stroke-linecap="round" stroke-linejoin="round"/>
<path d="M14.25 19L17.4167 22.1667L23.75 15.8333" stroke="#DCE2FF" stroke-width="2" stroke-linecap="round" stroke-linejoin="round"/>
</svg>
