<svg width="35" height="35" viewBox="0 0 35 35" fill="none" xmlns="http://www.w3.org/2000/svg">
<path d="M27.7083 24.7917H30.625C31.5 24.7917 32.0833 24.2083 32.0833 23.3333V18.9583C32.0833 17.6458 31.0625 16.4792 29.8958 16.1875C27.2708 15.4583 23.3333 14.5833 23.3333 14.5833C23.3333 14.5833 21.4375 12.5417 20.125 11.2292C19.3958 10.6458 18.5208 10.2083 17.5 10.2083H7.29163C6.41663 10.2083 5.68746 10.7917 5.24996 11.5208L3.20829 15.75C3.01518 16.3133 2.91663 16.9046 2.91663 17.5V23.3333C2.91663 24.2083 3.49996 24.7917 4.37496 24.7917H7.29163" stroke="#D7DEFF" stroke-width="2" stroke-linecap="round" stroke-linejoin="round"/>
<path d="M10.2083 27.7083C11.8191 27.7083 13.125 26.4025 13.125 24.7917C13.125 23.1808 11.8191 21.875 10.2083 21.875C8.59746 21.875 7.29163 23.1808 7.29163 24.7917C7.29163 26.4025 8.59746 27.7083 10.2083 27.7083Z" stroke="#D7DEFF" stroke-width="2" stroke-linecap="round" stroke-linejoin="round"/>
<path d="M13.125 24.7917H21.875" stroke="#D7DEFF" stroke-width="2" stroke-linecap="round" stroke-linejoin="round"/>
<path d="M24.7917 27.7083C26.4025 27.7083 27.7083 26.4025 27.7083 24.7917C27.7083 23.1808 26.4025 21.875 24.7917 21.875C23.1808 21.875 21.875 23.1808 21.875 24.7917C21.875 26.4025 23.1808 27.7083 24.7917 27.7083Z" stroke="#D7DEFF" stroke-width="2" stroke-linecap="round" stroke-linejoin="round"/>
</svg>
