<svg width="35" height="35" viewBox="0 0 35 35" fill="none" xmlns="http://www.w3.org/2000/svg">
<path d="M17.5 20.4167V26.25" stroke="#D7DEFF" stroke-width="2" stroke-linecap="round" stroke-linejoin="round"/>
<path d="M20.6675 2.91666C21.441 2.91682 22.1828 3.22422 22.7296 3.77124L28.3121 9.35374C28.8591 9.90059 29.1665 10.6423 29.1667 11.4158V29.1667C29.1667 29.9402 28.8594 30.6821 28.3124 31.2291C27.7655 31.776 27.0236 32.0833 26.25 32.0833H8.75004C7.97649 32.0833 7.23463 31.776 6.68765 31.2291C6.14066 30.6821 5.83337 29.9402 5.83337 29.1667V5.83332C5.83337 5.05978 6.14066 4.31791 6.68765 3.77093C7.23463 3.22395 7.97649 2.91666 8.75004 2.91666H20.6675Z" stroke="#D7DEFF" stroke-width="2" stroke-linecap="round" stroke-linejoin="round"/>
<path d="M11.6666 20.4167H23.3333" stroke="#D7DEFF" stroke-width="2" stroke-linecap="round" stroke-linejoin="round"/>
<path d="M21.875 14.5833H13.125C12.3195 14.5833 11.6666 15.2363 11.6666 16.0417V24.7917C11.6666 25.5971 12.3195 26.25 13.125 26.25H21.875C22.6804 26.25 23.3333 25.5971 23.3333 24.7917V16.0417C23.3333 15.2363 22.6804 14.5833 21.875 14.5833Z" stroke="#D7DEFF" stroke-width="2" stroke-linecap="round" stroke-linejoin="round"/>
</svg>
