<svg width="35" height="35" viewBox="0 0 35 35" fill="none" xmlns="http://www.w3.org/2000/svg">
<path d="M23.3334 2.91669V5.83335" stroke="#D7DEFF" stroke-width="2" stroke-linecap="round" stroke-linejoin="round"/>
<path d="M26.1261 32.0833C26.1261 29.7627 25.2042 27.5371 23.5633 25.8961C21.9223 24.2552 19.6967 23.3333 17.3761 23.3333C15.0555 23.3333 12.8299 24.2552 11.1889 25.8961C9.54797 27.5371 8.6261 29.7627 8.6261 32.0833" stroke="#D7DEFF" stroke-width="2" stroke-linecap="round" stroke-linejoin="round"/>
<path d="M11.6666 2.91669V5.83335" stroke="#D7DEFF" stroke-width="2" stroke-linecap="round" stroke-linejoin="round"/>
<path d="M17.5 23.3334C20.7216 23.3334 23.3333 20.7217 23.3333 17.5C23.3333 14.2784 20.7216 11.6667 17.5 11.6667C14.2783 11.6667 11.6666 14.2784 11.6666 17.5C11.6666 20.7217 14.2783 23.3334 17.5 23.3334Z" stroke="#D7DEFF" stroke-width="2" stroke-linecap="round" stroke-linejoin="round"/>
<path d="M27.7083 5.83331H7.29167C5.68084 5.83331 4.375 7.13915 4.375 8.74998V29.1666C4.375 30.7775 5.68084 32.0833 7.29167 32.0833H27.7083C29.3192 32.0833 30.625 30.7775 30.625 29.1666V8.74998C30.625 7.13915 29.3192 5.83331 27.7083 5.83331Z" stroke="#D7DEFF" stroke-width="2" stroke-linecap="round" stroke-linejoin="round"/>
</svg>
