<svg width="35" height="35" viewBox="0 0 35 35" fill="none" xmlns="http://www.w3.org/2000/svg">
<path d="M16.0417 21.875H18.9583C19.7319 21.875 20.4737 21.5677 21.0207 21.0207C21.5677 20.4737 21.875 19.7319 21.875 18.9583C21.875 18.1848 21.5677 17.4429 21.0207 16.8959C20.4737 16.3489 19.7319 16.0417 18.9583 16.0417H14.5833C13.7083 16.0417 12.9792 16.3333 12.5417 16.9167L4.375 24.7917" stroke="#D7DEFF" stroke-width="2" stroke-linecap="round" stroke-linejoin="round"/>
<path d="M10.2084 30.625L12.5417 28.5833C12.9792 28 13.7084 27.7083 14.5834 27.7083H20.4167C22.0209 27.7083 23.4792 27.125 24.5 25.9583L31.2084 19.5417C31.7711 19.0099 32.0996 18.2763 32.1215 17.5023C32.1433 16.7283 31.8569 15.9773 31.325 15.4146C30.7932 14.8518 30.0596 14.5234 29.2857 14.5015C28.5117 14.4796 27.7607 14.7661 27.198 15.2979L21.073 20.9854" stroke="#D7DEFF" stroke-width="2" stroke-linecap="round" stroke-linejoin="round"/>
<path d="M2.91663 23.3333L11.6666 32.0833" stroke="#D7DEFF" stroke-width="2" stroke-linecap="round" stroke-linejoin="round"/>
<path d="M23.3333 17.3542C25.669 17.3542 27.5625 15.4607 27.5625 13.125C27.5625 10.7893 25.669 8.89584 23.3333 8.89584C20.9976 8.89584 19.1041 10.7893 19.1041 13.125C19.1041 15.4607 20.9976 17.3542 23.3333 17.3542Z" stroke="#D7DEFF" stroke-width="2" stroke-linecap="round" stroke-linejoin="round"/>
<path d="M8.75 11.6667C11.1662 11.6667 13.125 9.7079 13.125 7.29166C13.125 4.87541 11.1662 2.91666 8.75 2.91666C6.33375 2.91666 4.375 4.87541 4.375 7.29166C4.375 9.7079 6.33375 11.6667 8.75 11.6667Z" stroke="#D7DEFF" stroke-width="2" stroke-linecap="round" stroke-linejoin="round"/>
</svg>
