<svg width="35" height="35" viewBox="0 0 35 35" fill="none" xmlns="http://www.w3.org/2000/svg">
<path d="M14.5834 32.0833V22.5021" stroke="#D7DEFF" stroke-width="2" stroke-linecap="round" stroke-linejoin="round"/>
<path d="M17.5 16.0417H17.5139" stroke="#D7DEFF" stroke-width="2" stroke-linecap="round" stroke-linejoin="round"/>
<path d="M17.5 10.2083H17.5139" stroke="#D7DEFF" stroke-width="2" stroke-linecap="round" stroke-linejoin="round"/>
<path d="M20.4166 22.5021V32.0833" stroke="#D7DEFF" stroke-width="2" stroke-linecap="round" stroke-linejoin="round"/>
<path d="M21.875 23.3333C20.6128 22.3867 19.0777 21.875 17.5 21.875C15.9223 21.875 14.3872 22.3867 13.125 23.3333" stroke="#D7DEFF" stroke-width="2" stroke-linecap="round" stroke-linejoin="round"/>
<path d="M23.3334 16.0417H23.3472" stroke="#D7DEFF" stroke-width="2" stroke-linecap="round" stroke-linejoin="round"/>
<path d="M23.3334 10.2083H23.3472" stroke="#D7DEFF" stroke-width="2" stroke-linecap="round" stroke-linejoin="round"/>
<path d="M11.6666 16.0417H11.6805" stroke="#D7DEFF" stroke-width="2" stroke-linecap="round" stroke-linejoin="round"/>
<path d="M11.6666 10.2083H11.6805" stroke="#D7DEFF" stroke-width="2" stroke-linecap="round" stroke-linejoin="round"/>
<path d="M26.25 2.91667H8.75004C7.13921 2.91667 5.83337 4.22251 5.83337 5.83334V29.1667C5.83337 30.7775 7.13921 32.0833 8.75004 32.0833H26.25C27.8609 32.0833 29.1667 30.7775 29.1667 29.1667V5.83334C29.1667 4.22251 27.8609 2.91667 26.25 2.91667Z" stroke="#D7DEFF" stroke-width="2" stroke-linecap="round" stroke-linejoin="round"/>
</svg>
