<svg width="35" height="35" viewBox="0 0 35 35" fill="none" xmlns="http://www.w3.org/2000/svg">
<path d="M16.0416 24.7917H20.4166V27.7083C20.4166 28.0951 20.5703 28.466 20.8438 28.7395C21.1173 29.013 21.4882 29.1667 21.875 29.1667H24.7916C25.1784 29.1667 25.5493 29.013 25.8228 28.7395C26.0963 28.466 26.25 28.0951 26.25 27.7083V23.3333C26.9293 23.1072 27.5466 22.7258 28.0528 22.2195C28.5591 21.7133 28.9405 21.096 29.1666 20.4167H30.625C31.0117 20.4167 31.3827 20.263 31.6562 19.9895C31.9296 19.716 32.0833 19.3451 32.0833 18.9583V16.0417C32.0833 15.6549 31.9296 15.284 31.6562 15.0105C31.3827 14.737 31.0117 14.5833 30.625 14.5833H29.1666C29.1666 13.4513 28.9031 12.3349 28.3968 11.3224C27.8906 10.3099 27.1556 9.4292 26.25 8.75V4.375C25.3444 4.375 24.4512 4.58585 23.6412 4.99084C22.8312 5.39584 22.1266 5.98386 21.5833 6.70833L21.1458 7.29167H16.0416C13.721 7.29167 11.4954 8.21354 9.85444 9.85448C8.2135 11.4954 7.29163 13.721 7.29163 16.0417V17.5C7.29163 18.632 7.55518 19.7484 8.06143 20.7609C8.56767 21.7734 9.3027 22.6541 10.2083 23.3333V27.7083C10.2083 28.0951 10.3619 28.466 10.6354 28.7395C10.9089 29.013 11.2799 29.1667 11.6666 29.1667H14.5833C14.9701 29.1667 15.341 29.013 15.6145 28.7395C15.888 28.466 16.0416 28.0951 16.0416 27.7083V24.7917Z" stroke="#D7DEFF" stroke-width="2" stroke-linecap="round" stroke-linejoin="round"/>
<path d="M23.3334 14.5833H23.3476" stroke="#D7DEFF" stroke-width="2" stroke-linecap="round" stroke-linejoin="round"/>
<path d="M2.91663 11.6667V13.125C2.91663 13.8985 3.22392 14.6404 3.7709 15.1874C4.31788 15.7344 5.05974 16.0417 5.83329 16.0417H7.29163" stroke="#D7DEFF" stroke-width="2" stroke-linecap="round" stroke-linejoin="round"/>
</svg>
