<svg width="35" height="35" viewBox="0 0 35 35" fill="none" xmlns="http://www.w3.org/2000/svg">
<path d="M25.9583 28L23.3333 16.0417L28.4375 10.9375C30.625 8.75 31.3542 5.83333 30.625 4.375C29.1667 3.64583 26.25 4.375 24.0625 6.5625L18.9583 11.6667L7 9.04167C6.27083 8.89583 5.6875 9.1875 5.39583 9.77083L4.95833 10.5C4.66667 11.2292 4.8125 11.9583 5.39583 12.3958L13.125 17.5L10.2083 21.875H5.83333L4.375 23.3333L8.75 26.25L11.6667 30.625L13.125 29.1667V24.7917L17.5 21.875L22.6042 29.6042C23.0417 30.1875 23.7708 30.3333 24.5 30.0417L25.2292 29.75C25.8125 29.3125 26.1042 28.7292 25.9583 28Z" stroke="#D7DEFF" stroke-width="2" stroke-linecap="round" stroke-linejoin="round"/>
</svg>
