<svg width="35" height="35" viewBox="0 0 35 35" fill="none" xmlns="http://www.w3.org/2000/svg">
<path d="M14.1035 6.03166C14.1838 5.18633 14.5765 4.40131 15.2047 3.82999C15.8329 3.25866 16.6515 2.94208 17.5007 2.94208C18.3498 2.94208 19.1685 3.25866 19.7967 3.82999C20.4249 4.40131 20.8175 5.18633 20.8979 6.03166C20.9462 6.57774 21.1253 7.10415 21.4202 7.56633C21.715 8.0285 22.1168 8.41284 22.5917 8.68682C23.0665 8.96079 23.6004 9.11633 24.1481 9.14028C24.6957 9.16422 25.2411 9.05586 25.7381 8.82437C26.5097 8.47405 27.3841 8.42336 28.191 8.68216C28.9979 8.94097 29.6797 9.49076 30.1036 10.2245C30.5275 10.9583 30.6633 11.8235 30.4844 12.6519C30.3056 13.4802 29.8249 14.2124 29.136 14.7058C28.6874 15.0206 28.3212 15.4388 28.0684 15.925C27.8156 16.4113 27.6836 16.9512 27.6836 17.4993C27.6836 18.0473 27.8156 18.5873 28.0684 19.0735C28.3212 19.5597 28.6874 19.9779 29.136 20.2927C29.8249 20.7862 30.3056 21.5183 30.4844 22.3467C30.6633 23.175 30.5275 24.0402 30.1036 24.774C29.6797 25.5078 28.9979 26.0576 28.191 26.3164C27.3841 26.5752 26.5097 26.5245 25.7381 26.1742C25.2411 25.9427 24.6957 25.8343 24.1481 25.8583C23.6004 25.8822 23.0665 26.0377 22.5917 26.3117C22.1168 26.5857 21.715 26.97 21.4202 27.4322C21.1253 27.8944 20.9462 28.4208 20.8979 28.9669C20.8175 29.8122 20.4249 30.5972 19.7967 31.1685C19.1685 31.7399 18.3498 32.0565 17.5007 32.0565C16.6515 32.0565 15.8329 31.7399 15.2047 31.1685C14.5765 30.5972 14.1838 29.8122 14.1035 28.9669C14.0553 28.4206 13.8761 27.894 13.5812 27.4316C13.2863 26.9693 12.8843 26.5848 12.4093 26.3108C11.9342 26.0368 11.4001 25.8814 10.8523 25.8576C10.3044 25.8338 9.75883 25.9424 9.26183 26.1742C8.49021 26.5245 7.61585 26.5752 6.80891 26.3164C6.00198 26.0576 5.32021 25.5078 4.89629 24.774C4.47236 24.0402 4.33662 23.175 4.51548 22.3467C4.69434 21.5183 5.175 20.7862 5.86391 20.2927C6.31253 19.9779 6.67873 19.5597 6.93154 19.0735C7.18436 18.5873 7.31635 18.0473 7.31635 17.4993C7.31635 16.9512 7.18436 16.4113 6.93154 15.925C6.67873 15.4388 6.31253 15.0206 5.86391 14.7058C5.17597 14.2121 4.69615 13.4802 4.51773 12.6525C4.3393 11.8247 4.47501 10.9602 4.89847 10.2269C5.32194 9.49358 6.00291 8.94392 6.80905 8.68472C7.61518 8.42552 8.48889 8.4753 9.26037 8.82437C9.75731 9.05586 10.3027 9.16422 10.8504 9.14028C11.3981 9.11633 11.9319 8.96079 12.4068 8.68682C12.8816 8.41284 13.2835 8.0285 13.5783 7.56633C13.8731 7.10415 14.0523 6.57774 14.1006 6.03166" stroke="#D7DEFF" stroke-width="2" stroke-linecap="round" stroke-linejoin="round"/>
<path d="M17.5 21.875C19.9162 21.875 21.875 19.9162 21.875 17.5C21.875 15.0838 19.9162 13.125 17.5 13.125C15.0838 13.125 13.125 15.0838 13.125 17.5C13.125 19.9162 15.0838 21.875 17.5 21.875Z" stroke="#D7DEFF" stroke-width="2" stroke-linecap="round" stroke-linejoin="round"/>
</svg>
