<svg width="35" height="35" viewBox="0 0 35 35" fill="none" xmlns="http://www.w3.org/2000/svg">
<path d="M2.91663 13.125C4.07695 13.125 5.18975 13.5859 6.01022 14.4064C6.83069 15.2269 7.29163 16.3397 7.29163 17.5C7.29163 18.6603 6.83069 19.7731 6.01022 20.5936C5.18975 21.4141 4.07695 21.875 2.91663 21.875V24.7917C2.91663 25.5652 3.22392 26.3071 3.7709 26.854C4.31788 27.401 5.05974 27.7083 5.83329 27.7083H29.1666C29.9402 27.7083 30.682 27.401 31.229 26.854C31.776 26.3071 32.0833 25.5652 32.0833 24.7917V21.875C30.923 21.875 29.8102 21.4141 28.9897 20.5936C28.1692 19.7731 27.7083 18.6603 27.7083 17.5C27.7083 16.3397 28.1692 15.2269 28.9897 14.4064C29.8102 13.5859 30.923 13.125 32.0833 13.125V10.2083C32.0833 9.43477 31.776 8.69291 31.229 8.14593C30.682 7.59895 29.9402 7.29166 29.1666 7.29166H5.83329C5.05974 7.29166 4.31788 7.59895 3.7709 8.14593C3.22392 8.69291 2.91663 9.43477 2.91663 10.2083V13.125Z" stroke="#D7DEFF" stroke-width="2" stroke-linecap="round" stroke-linejoin="round"/>
<path d="M13.125 13.125H13.1396" stroke="#D7DEFF" stroke-width="2" stroke-linecap="round" stroke-linejoin="round"/>
<path d="M21.875 13.125L13.125 21.875" stroke="#D7DEFF" stroke-width="2" stroke-linecap="round" stroke-linejoin="round"/>
<path d="M21.875 21.875H21.8896" stroke="#D7DEFF" stroke-width="2" stroke-linecap="round" stroke-linejoin="round"/>
</svg>
