<svg width="50" height="50" viewBox="0 0 50 50" fill="none" xmlns="http://www.w3.org/2000/svg">
<path d="M20.8333 31.25H16.6667C13.904 31.25 11.2545 32.3475 9.30097 34.301C7.34747 36.2545 6.25 38.904 6.25 41.6667V43.75H20.9375M33.3333 15.625C33.3333 18.1114 32.3456 20.496 30.5875 22.2541C28.8293 24.0123 26.4447 25 23.9583 25C21.4719 25 19.0874 24.0123 17.3292 22.2541C15.5711 20.496 14.5833 18.1114 14.5833 15.625C14.5833 13.1386 15.5711 10.754 17.3292 8.99587C19.0874 7.23772 21.4719 6.25 23.9583 6.25C26.4447 6.25 28.8293 7.23772 30.5875 8.99587C32.3456 10.754 33.3333 13.1386 33.3333 15.625Z" stroke="#4659B7" stroke-width="2" stroke-linecap="square"/>
<path d="M43.75 30.2083H31.25L28.125 36.4583L37.5 46.875L46.875 36.4583L43.75 30.2083Z" stroke="#4659B7" stroke-width="2"/>
</svg>
