<svg width="50" height="50" viewBox="0 0 50 50" fill="none" xmlns="http://www.w3.org/2000/svg">
<path d="M33.3333 12.5C33.3333 14.7101 32.4554 16.8297 30.8926 18.3925C29.3298 19.9554 27.2101 20.8333 25 20.8333C22.7899 20.8333 20.6702 19.9554 19.1074 18.3925C17.5446 16.8297 16.6667 14.7101 16.6667 12.5C16.6667 10.2899 17.5446 8.17024 19.1074 6.60743C20.6702 5.04463 22.7899 4.16666 25 4.16666C27.2101 4.16666 29.3298 5.04463 30.8926 6.60743C32.4554 8.17024 33.3333 10.2899 33.3333 12.5ZM25 27.0833C20.0272 27.0833 15.2581 29.0588 11.7417 32.5751C8.22544 36.0914 6.25 40.8605 6.25 45.8333H43.75C43.75 40.8605 41.7746 36.0914 38.2582 32.5751C34.7419 29.0588 29.9728 27.0833 25 27.0833Z" stroke="#4659B7" stroke-width="1.5" stroke-linecap="round" stroke-linejoin="round"/>
</svg>
